<svg xmlns="http://www.w3.org/2000/svg" viewBox="0 0 32 32" width="32" height="32">
  <!-- Tło piłki -->
  <circle cx="16" cy="16" r="15" fill="#ffffff" stroke="#000000" stroke-width="1"/>
  
  <!-- Klasyczny wzór piłki nożnej - pięciokąty i sześciokąty -->
  <!-- Centralny pięciokąt -->
  <polygon points="16,6 19.5,9 18,13 14,13 12.5,9" fill="#000000"/>
  
  <!-- Górne sześciokąty -->
  <polygon points="12.5,9 14,13 11,15 8,12 9,9" fill="#cccccc"/>
  <polygon points="19.5,9 23,9 24,12 21,15 18,13" fill="#cccccc"/>
  
  <!-- Środkowe sześciokąty -->
  <polygon points="8,12 11,15 10,19 6,19 5,15" fill="#cccccc"/>
  <polygon points="21,15 24,12 27,15 26,19 22,19" fill="#cccccc"/>
  
  <!-- Dolne sześciokąty -->
  <polygon points="11,15 14,13 18,13 21,15 20,19 12,19" fill="#cccccc"/>
  
  <!-- Dolne pięciokąty -->
  <polygon points="10,19 12,19 14,25 11,26 8,23" fill="#000000"/>
  <polygon points="20,19 22,19 24,23 21,26 18,25" fill="#000000"/>
</svg>
